<svg id="icon_widescreen" data-name="icon/widescreen" xmlns="http://www.w3.org/2000/svg" width="26.5" height="26.5" viewBox="0 0 26.5 26.5">
  <path id="Path_2" data-name="Path 2" d="M3,3H8A1.5,1.5,0,0,0,8,0H1.5A1.5,1.5,0,0,0,0,1.5V8A1.5,1.5,0,0,0,3,8Z" transform="translate(9.5 9.5) rotate(-180)" fill="#fff"/>
  <path id="Path_2-2" data-name="Path 2" d="M-3,3H-8A1.5,1.5,0,0,1-9.5,1.5,1.5,1.5,0,0,1-8,0h6.5A1.5,1.5,0,0,1,0,1.5V8A1.5,1.5,0,0,1-1.5,9.5,1.5,1.5,0,0,1-3,8Z" transform="translate(9.5 17)" fill="#fff"/>
  <path id="Path_2-3" data-name="Path 2" d="M3-3H8A1.5,1.5,0,0,1,9.5-1.5,1.5,1.5,0,0,1,8,0H1.5A1.5,1.5,0,0,1,0-1.5V-8A1.5,1.5,0,0,1,1.5-9.5,1.5,1.5,0,0,1,3-8Z" transform="translate(17 9.5)" fill="#fff"/>
  <path id="Path_2-4" data-name="Path 2" d="M3,3H8A1.5,1.5,0,0,0,8,0H1.5A1.5,1.5,0,0,0,0,1.5V8A1.5,1.5,0,0,0,3,8Z" transform="translate(17 17)" fill="#fff"/>
</svg>
