<svg id="icon_widescreen" data-name="icon/widescreen" xmlns="http://www.w3.org/2000/svg" width="26.5" height="26.5" viewBox="0 0 26.5 26.5">
  <path id="icon_widescreen-2" data-name="icon/widescreen" d="M18.5,26.5a1.5,1.5,0,1,1,0-3h5v-5a1.5,1.5,0,1,1,3,0V25A1.5,1.5,0,0,1,25,26.5Zm-17,0A1.5,1.5,0,0,1,0,25V18.5a1.5,1.5,0,1,1,3,0v5H8a1.5,1.5,0,1,1,0,3ZM23.5,8V3h-5a1.5,1.5,0,1,1,0-3H25a1.5,1.5,0,0,1,1.5,1.5V8a1.5,1.5,0,1,1-3,0ZM0,8V1.5A1.5,1.5,0,0,1,1.5,0H8A1.5,1.5,0,1,1,8,3H3V8A1.5,1.5,0,1,1,0,8Z" fill="#fff"/>
</svg>
